<svg width="24" height="24" viewBox="0 0 24 24" fill="none" xmlns="http://www.w3.org/2000/svg">
<path d="M18.9999 10.0001C19.0004 9.7664 18.919 9.53996 18.7699 9.36005C18.686 9.25879 18.5829 9.17509 18.4665 9.11374C18.3502 9.05239 18.2229 9.01459 18.0919 9.00251C17.9609 8.99044 17.8289 9.00432 17.7033 9.04337C17.5777 9.08241 17.461 9.14585 17.3599 9.23005L11.9999 13.7101L6.62994 9.39005C6.52765 9.30699 6.40996 9.24495 6.28362 9.20752C6.15728 9.17009 6.02479 9.158 5.89376 9.17194C5.76273 9.18587 5.63575 9.22557 5.52011 9.28875C5.40447 9.35192 5.30246 9.43732 5.21994 9.54005C5.1289 9.64352 5.06024 9.76468 5.01825 9.89595C4.97626 10.0272 4.96185 10.1657 4.97594 10.3028C4.99002 10.4399 5.03229 10.5726 5.1001 10.6926C5.1679 10.8126 5.25977 10.9173 5.36994 11.0001L11.3699 15.8301C11.5489 15.9771 11.7733 16.0575 12.0049 16.0575C12.2366 16.0575 12.461 15.9771 12.6399 15.8301L18.6399 10.8301C18.761 10.7297 18.8566 10.6023 18.9192 10.4581C18.9817 10.3139 19.0094 10.157 18.9999 10.0001Z" fill="#001A57"/>
</svg>
