<svg width="53" height="56" viewBox="0 0 53 56" fill="none" xmlns="http://www.w3.org/2000/svg">
<rect x="8.75104" y="28.0275" width="27.3357" height="27.3357" transform="rotate(-45 8.75104 28.0275)" fill="#A9AFC5"/>
<rect y="28.1158" width="39.7237" height="4.10035" transform="rotate(-45 0 28.1158)" fill="#28366D"/>
<rect x="35.0011" y="12.6842" width="13.8378" height="4.10035" transform="rotate(-135 35.0011 12.6842)" fill="#28366D"/>
<rect x="50.8364" y="29.0697" width="10.2941" height="2.05883" transform="rotate(-135 50.8364 29.0697)" fill="#28366D"/>
<rect x="25.156" y="53.0204" width="13.4533" height="4.10035" transform="rotate(-45 25.156 53.0204)" fill="#28366D"/>
<rect x="43.7274" y="33.632" width="10.2941" height="2.05883" transform="rotate(-45 43.7274 33.632)" fill="#28366D"/>
<rect x="3.01288" y="25.2242" width="39.4231" height="4.10035" transform="rotate(45 3.01288 25.2242)" fill="#28366D"/>
<rect x="26.9867" y="34.7241" width="19.135" height="1.09343" transform="rotate(-45 26.9867 34.7241)" fill="white"/>
<rect x="34.8384" y="28.452" width="10.3312" height="1.09343" transform="rotate(-135 34.8384 28.452)" fill="white"/>
<rect x="27.7312" y="35.5593" width="10.3312" height="1.09343" transform="rotate(-135 27.7312 35.5593)" fill="white"/>
<rect x="14.6855" y="33.904" width="19.135" height="1.09343" transform="rotate(-45 14.6855 33.904)" fill="white"/>
<rect x="21.8564" y="28.0697" width="8.95087" height="8.4305" transform="rotate(-45 21.8564 28.0697)" fill="#28366D"/>
</svg>
