<svg width="20" height="20" viewBox="0 0 20 20" fill="none" xmlns="http://www.w3.org/2000/svg">
<path fill-rule="evenodd" clip-rule="evenodd" d="M5.43442 5.43442C5.58445 5.28444 5.78789 5.20019 6.00002 5.20019C6.21216 5.20019 6.4156 5.28444 6.56562 5.43442L10 8.86882L13.4344 5.43442C13.5082 5.35801 13.5965 5.29706 13.6941 5.25514C13.7917 5.21321 13.8967 5.19114 14.0029 5.19022C14.1091 5.18929 14.2145 5.20953 14.3128 5.24976C14.4111 5.28998 14.5004 5.34939 14.5755 5.4245C14.6507 5.49961 14.7101 5.58894 14.7503 5.68725C14.7905 5.78557 14.8107 5.89091 14.8098 5.99714C14.8089 6.10336 14.7868 6.20834 14.7449 6.30594C14.703 6.40354 14.642 6.49182 14.5656 6.56562L11.1312 10L14.5656 13.4344C14.7114 13.5853 14.792 13.7874 14.7902 13.9971C14.7883 14.2069 14.7042 14.4075 14.5559 14.5559C14.4076 14.7042 14.2069 14.7883 13.9971 14.7902C13.7874 14.792 13.5853 14.7113 13.4344 14.5656L10 11.1312L6.56562 14.5656C6.41474 14.7113 6.21266 14.792 6.0029 14.7902C5.79315 14.7883 5.5925 14.7042 5.44417 14.5559C5.29584 14.4075 5.21171 14.2069 5.20989 13.9971C5.20806 13.7874 5.2887 13.5853 5.43442 13.4344L8.86883 10L5.43442 6.56562C5.28445 6.41559 5.2002 6.21215 5.2002 6.00002C5.2002 5.78788 5.28445 5.58444 5.43442 5.43442Z" fill="#1A4DC2"/>
<rect x="0.5" y="0.5" width="19" height="19" rx="7.5" stroke="#1A4DC2"/>
</svg>
