<svg width="20" height="20" viewBox="0 0 20 20" fill="none" xmlns="http://www.w3.org/2000/svg">
<g clip-path="url(#clip0_8_106)">
<path fill-rule="evenodd" clip-rule="evenodd" d="M2.35626 0.63875C2.57498 0.420361 2.83761 0.250948 3.12675 0.141738C3.4159 0.0325276 3.72495 -0.0139861 4.03343 0.00527911C4.34191 0.0245444 4.64278 0.109149 4.91609 0.253486C5.1894 0.397822 5.42891 0.598596 5.61876 0.8425L7.86251 3.725C8.27376 4.25375 8.41876 4.9425 8.25626 5.5925L7.57251 8.33C7.53716 8.47179 7.53907 8.62031 7.57805 8.76114C7.61704 8.90197 7.69178 9.03033 7.79501 9.13375L10.8663 12.205C10.9698 12.3084 11.0984 12.3833 11.2394 12.4223C11.3805 12.4613 11.5293 12.4631 11.6713 12.4275L14.4075 11.7437C14.7283 11.6635 15.0631 11.6573 15.3866 11.7255C15.7101 11.7937 16.0139 11.9346 16.275 12.1375L19.1575 14.38C20.1938 15.1862 20.2888 16.7175 19.3613 17.6437L18.0688 18.9362C17.1438 19.8612 15.7613 20.2675 14.4725 19.8137C11.174 18.6532 8.1791 16.7648 5.71001 14.2887C3.23412 11.82 1.34577 8.82557 0.185009 5.5275C-0.267491 4.24 0.138759 2.85625 1.06376 1.93125L2.35626 0.63875Z" fill="white"/>
</g>
<defs>
<clipPath id="clip0_8_106">
<rect width="20" height="20" fill="white"/>
</clipPath>
</defs>
</svg>
